<?xml version="1.0" encoding="UTF-8"?>
<svg xmlns="http://www.w3.org/2000/svg" id="Layer_1" data-name="Layer 1" viewBox="0 0 24 24">
  <!-- Black plus -->
  <path fill="black" d="M14.958,11.5h-2.458v-2.466c0-.276-.224-.5-.5-.5s-.5,.224-.5,.5v2.466h-2.458c-.276,0-.5,.224-.5,.5s.224,.5,.5,.5h2.458v2.466c0,.276,.224,.5,.5,.5s.5-.224,.5-.5v-2.466h2.458c.276,0,.5-.224,.5-.5s-.224-.5-.5-.5Z"/>
  <!-- White circle background -->
  <path fill="white" d="M11.997,1C4.947,1.044,1.026,5.202,1.026,11.991c0,6.966,3.823,10.967,10.977,11.009,7.147-.042,10.839-3.74,10.971-11.009-.122-7.042-4.018-10.946-10.977-10.991Zm.006,21c-6.588-.039-9.852-3.31-9.977-10,.12-6.595,3.477-9.959,9.97-10,4.473,.029,9.835,1.79,9.977,9.991-.122,6.696-3.385,9.97-9.971,10.009Z"/>
</svg>

